<svg xmlns="http://www.w3.org/2000/svg" version="1.1" xmlns:xlink="http://www.w3.org/1999/xlink" xmlns:svgjs="http://svgjs.dev/svgjs" width="97" height="97"><svg width="97" height="97" viewBox="0 0 97 97" fill="none" xmlns="http://www.w3.org/2000/svg">
<circle cx="48.5859" cy="48.125" r="48" fill="#191919" data-darkreader-inline-fill="" style="--darkreader-inline-fill: #121213;"></circle>
<path d="M65.6714 10.6647C65.8884 8.90267 65.5629 7.51817 64.6951 6.51127C63.6103 5.37851 61.3321 4.81213 57.8607 4.81213C54.3892 4.68626 50.7008 5.00092 46.7955 5.7561C42.8901 6.38541 39.2017 7.39231 35.7302 8.7768C32.2588 10.0354 30.1976 11.4828 29.5467 13.1191C28.8958 14.7553 28.7874 16.5174 29.2213 18.4053C29.6552 20.2932 30.4146 22.0553 31.4994 23.6915C32.5843 25.2019 33.886 26.5234 35.4048 27.6562C36.9236 28.6631 38.4423 29.2295 39.9611 29.3553C41.9138 29.6071 44.9513 29.5441 49.0736 29.1666C53.4129 28.6631 56.6674 27.5303 58.837 25.7683C59.9219 24.7614 61.0067 23.3769 62.0915 21.6148C63.1763 19.8527 64.0442 18.0277 64.6951 16.1398C65.346 14.2518 65.6714 12.4268 65.6714 10.6647Z" fill="white" data-darkreader-inline-fill="" style="--darkreader-inline-fill: #171818;"></path>
<path d="M64.1303 38.2557C64.5711 38.7308 64.7915 40.2511 64.7915 42.8166C65.0119 45.2871 65.0119 48.3277 64.7915 51.9384C64.7915 55.4541 64.5711 59.2548 64.1303 63.3406C63.6895 67.3314 63.1385 71.1321 62.4773 74.7428C62.0365 78.2585 61.4855 81.2991 60.8243 83.8646C60.1631 86.3351 59.5019 87.8078 58.8407 88.2829C56.8571 89.6132 53.8817 90.4684 49.9145 90.8484C45.9473 91.1335 43.0821 91.181 41.3189 90.991C40.4373 90.991 39.4455 89.8982 38.3435 87.7128C37.4619 85.5274 36.5803 82.7719 35.6987 79.4462C34.8171 76.1206 34.0457 72.5099 33.3845 68.6141C32.7233 64.7184 32.1723 61.0126 31.7315 57.497C31.2907 53.8863 31.0703 50.7507 31.0703 48.0901C31.0703 45.4296 31.2907 43.7193 31.7315 42.9591C32.3927 41.7239 34.2661 40.6312 37.3517 39.681C40.6577 38.7308 44.0739 38.0182 47.6003 37.5431C51.3471 37.068 54.7633 36.878 57.8489 36.973C61.1549 36.973 63.2487 37.4006 64.1303 38.2557Z" fill="white" data-darkreader-inline-fill="" style="--darkreader-inline-fill: #171818;"></path>
</svg><style>@media (prefers-color-scheme: light) { :root { filter: none; } }
@media (prefers-color-scheme: dark) { :root { filter: none; } }
</style></svg>